<?xml version="1.0" encoding="UTF-8"?>
<svg width="93px" height="74px" viewBox="0 0 93 74" version="1.1" xmlns="http://www.w3.org/2000/svg" xmlns:xlink="http://www.w3.org/1999/xlink">
    <!-- Generator: Sketch 59.1 (86144) - https://sketch.com -->
    <title>Logo</title>
    <desc>Created with Sketch.</desc>
    <defs>
        <linearGradient x1="50%" y1="-6.56032105%" x2="50%" y2="99.6779983%" id="linearGradient-1">
            <stop stop-color="#0FE4B2" offset="0%"></stop>
            <stop stop-color="#036F57" offset="100%"></stop>
        </linearGradient>
        <linearGradient x1="100%" y1="50%" x2="7.19670333%" y2="50%" id="linearGradient-2">
            <stop stop-color="#FFFFFF" stop-opacity="0.5" offset="0%"></stop>
            <stop stop-color="#000000" stop-opacity="0.5" offset="100%"></stop>
        </linearGradient>
        <path d="M37,76.5 C46.5,76.5 54.5,45.5 54.5,35 C54.5,24.5 53,6 37,6 C21,6 18,24.5 18,35 C18,45.5 27.5,76.5 37,76.5 Z" id="path-3"></path>
        <linearGradient x1="60.2843519%" y1="13.4246942%" x2="50%" y2="100%" id="linearGradient-4">
            <stop stop-color="#FFFFFF" stop-opacity="0.5" offset="0%"></stop>
            <stop stop-color="#7DF108" stop-opacity="0.5" offset="100%"></stop>
        </linearGradient>
        <linearGradient x1="50%" y1="-6.56032105%" x2="50%" y2="99.6779983%" id="linearGradient-5">
            <stop stop-color="#50EC74" offset="0%"></stop>
            <stop stop-color="#076650" offset="100%"></stop>
        </linearGradient>
        <path d="M51,70.5 C60.5,70.5 68.5,39.5 68.5,29 C68.5,18.5 67,0 51,0 C35,0 32,18.5 32,29 C32,39.5 41.5,70.5 51,70.5 Z" id="path-6"></path>
        <linearGradient x1="50%" y1="-6.56032105%" x2="50%" y2="100%" id="linearGradient-7">
            <stop stop-color="#C2F45C" offset="0%"></stop>
            <stop stop-color="#076650" offset="100%"></stop>
        </linearGradient>
        <path d="M69.5,76.5 C79,76.5 87,45.5 87,35 C87,24.5 85.5,6 69.5,6 C53.5,6 50.5,24.5 50.5,35 C50.5,45.5 60,76.5 69.5,76.5 Z" id="path-8"></path>
    </defs>
    <g id="Logo" stroke="none" stroke-width="1" fill="none" fill-rule="evenodd">
        <g transform="translate(-6.000000, 2.000000)">
            <g id="Path-Copy" transform="translate(36.250000, 41.250000) scale(-1, 1) rotate(36.000000) translate(-36.250000, -41.250000) ">
                <use fill="url(#linearGradient-1)" xlink:href="#path-3"></use>
                <use fill-opacity="0.2" fill="url(#linearGradient-2)" xlink:href="#path-3"></use>
            </g>
            <g id="Path">
                <use fill="url(#linearGradient-4)" xlink:href="#path-6"></use>
                <use fill="url(#linearGradient-5)" xlink:href="#path-6"></use>
                <use fill-opacity="0.38" fill="url(#linearGradient-2)" xlink:href="#path-6"></use>
            </g>
            <g id="Path-Copy" transform="translate(68.750000, 41.250000) rotate(36.000000) translate(-68.750000, -41.250000) ">
                <use fill="url(#linearGradient-4)" xlink:href="#path-8"></use>
                <use fill="url(#linearGradient-7)" xlink:href="#path-8"></use>
                <use fill-opacity="0.19" fill="url(#linearGradient-2)" xlink:href="#path-8"></use>
            </g>
        </g>
    </g>
</svg>